<svg id="图层_1" data-name="图层 1" xmlns="http://www.w3.org/2000/svg" viewBox="0 0 32 32"><defs><style>.cls-1{fill:#3db4e8;}</style></defs><title>设备列表</title><path class="cls-1" d="M26.5,6.9a3,3,0,0,1,3,3V10a3,3,0,0,1-3,3H5.5a3,3,0,0,1-3-3V9.9a3,3,0,0,1,3-3h21m0-1.5H5.5A4.51,4.51,0,0,0,1,9.9V10a4.51,4.51,0,0,0,4.5,4.51h21A4.51,4.51,0,0,0,31,10V9.9a4.51,4.51,0,0,0-4.5-4.5Z"/><path class="cls-1" d="M26.5,18.9a3,3,0,0,1,3,3v.2a3,3,0,0,1-3,3H5.5a3,3,0,0,1-3-3v-.2a3,3,0,0,1,3-3h21m0-1.5H5.5A4.51,4.51,0,0,0,1,21.9v.2a4.51,4.51,0,0,0,4.5,4.5h21A4.51,4.51,0,0,0,31,22.1v-.2a4.51,4.51,0,0,0-4.5-4.5Z"/><path class="cls-1" d="M7,9a1,1,0,1,1-1,1A1,1,0,0,1,7,9M7,8a2,2,0,1,0,2,2A2,2,0,0,0,7,8Z"/><path class="cls-1" d="M26,21h0a1,1,0,1,1-.6.2A1,1,0,0,1,26,21m0-1a2,2,0,1,0,1.61.81A2,2,0,0,0,26,20Z"/><path class="cls-1" d="M6.68,20.2A2.68,2.68,0,0,0,4,22.88H4S4,23,4,23H5.52s0-.08,0-.12A1.18,1.18,0,0,1,6.68,21.7H9V20.2Z"/><path class="cls-1" d="M24.42,8.17H24v1.5h.42a1.15,1.15,0,0,1,1.15,1.05h1.52A2.67,2.67,0,0,0,24.42,8.17Z"/><rect class="cls-1" x="21.5" y="8.17" width="1.5" height="1.5"/></svg>