<svg id="图层_1" data-name="图层 1" xmlns="http://www.w3.org/2000/svg" viewBox="0 0 32 32"><defs><style>.cls-1{fill:#8fc31f;}.cls-2{fill:none;stroke:#8fc31f;stroke-linecap:round;stroke-linejoin:round;stroke-width:1.5px;}</style></defs><title>记录</title><path class="cls-1" d="M26.27,6H24V7.5h2.27A1.23,1.23,0,0,1,27.5,8.73V28.27a1.23,1.23,0,0,1-1.23,1.23H5.73A1.23,1.23,0,0,1,4.5,28.27V8.73A1.23,1.23,0,0,1,5.73,7.5H8V6H5.73A2.73,2.73,0,0,0,3,8.73V28.27A2.73,2.73,0,0,0,5.73,31H26.27A2.73,2.73,0,0,0,29,28.27V8.73A2.73,2.73,0,0,0,26.27,6Z"/><path class="cls-1" d="M16,2.5a1.49,1.49,0,0,1,1.4,1,1.51,1.51,0,0,0,1.41,1h3.46A1.23,1.23,0,0,1,23.5,5.73V8.27A1.23,1.23,0,0,1,22.27,9.5H9.73A1.23,1.23,0,0,1,8.5,8.27V5.73A1.23,1.23,0,0,1,9.73,4.5h3.46a1.51,1.51,0,0,0,1.41-1,1.49,1.49,0,0,1,1.4-1M16,1a3,3,0,0,0-2.81,2H9.73A2.73,2.73,0,0,0,7,5.73V8.27A2.73,2.73,0,0,0,9.73,11H22.27A2.73,2.73,0,0,0,25,8.27V5.73A2.73,2.73,0,0,0,22.27,3H18.81A3,3,0,0,0,16,1Z"/><line class="cls-2" x1="8.5" y1="15" x2="23.5" y2="15"/><line class="cls-2" x1="8.5" y1="20.5" x2="23.5" y2="20.5"/><line class="cls-2" x1="8.5" y1="26" x2="23.5" y2="26"/></svg>