<svg width="12px" height="12px" viewBox="0 0 12 12" version="1.1" xmlns="http://www.w3.org/2000/svg" xmlns:xlink="http://www.w3.org/1999/xlink">
    <!-- Generator: Sketch 50.2 (55047) - http://www.bohemiancoding.com/sketch -->
    <defs>
        <polygon id="path-1" points="0 0 14 0 14 14 0 14"></polygon>
    </defs>
    <g id="Page-1" stroke="none" stroke-width="1" fill="none" fill-rule="evenodd">
        <g id="首页9.28" transform="translate(-25.000000, -147.000000)">
            <g id="指挥调度图标" transform="translate(24.000000, 146.000000)">
                <path d="M11.398,12.12 C11.812,12.12 12.153,11.778 12.153,11.365 C12.153,10.952 11.812,10.611 11.398,10.611 C10.985,10.611 10.644,10.952 10.644,11.365 C10.644,11.778 10.985,12.12 11.398,12.12 Z M11.812,9.825 C12.494,10.012 13.001,10.632 12.99,11.365 C12.99,12.254 12.277,12.967 11.388,12.967 C10.499,12.967 9.786,12.244 9.786,11.365 C9.786,10.632 10.282,10.012 10.964,9.825 L10.964,1.424 C10.964,1.186 11.15,1 11.388,1 C11.626,1 11.812,1.186 11.812,1.424 L11.812,9.825 Z M7.76,7.324 C7.76,6.901 7.419,6.57 7.005,6.57 C6.592,6.57 6.251,6.911 6.251,7.324 C6.251,7.738 6.592,8.079 7.005,8.079 C7.419,8.079 7.76,7.738 7.76,7.324 Z M6.984,1 C7.222,1 7.409,1.186 7.409,1.424 L7.409,5.764 C8.09,5.95 8.597,6.57 8.597,7.314 C8.597,8.058 8.09,8.679 7.409,8.864 L7.409,12.554 C7.409,12.792 7.222,12.977 6.984,12.977 C6.747,12.977 6.561,12.792 6.561,12.554 L6.561,8.864 C5.889,8.679 5.393,8.058 5.393,7.324 C5.393,6.591 5.889,5.971 6.561,5.785 L6.561,1.424 C6.561,1.186 6.747,1 6.984,1 Z M1.827,2.601 C1.827,2.188 2.168,1.847 2.581,1.847 C2.995,1.847 3.336,2.188 3.336,2.601 C3.336,3.015 2.995,3.356 2.581,3.356 C2.168,3.356 1.827,3.015 1.827,2.601 Z M2.157,12.544 C2.157,12.781 2.343,12.967 2.581,12.967 C2.819,12.967 3.005,12.781 3.005,12.544 L3.005,4.152 C3.687,3.966 4.194,3.346 4.194,2.601 C4.194,1.723 3.481,1 2.591,1 C1.703,1 1,1.723 1,2.601 C1,3.335 1.496,3.955 2.168,4.141 L2.168,12.544 L2.157,12.544 Z" id="Fill-1" fill-opacity="0.65" fill="#FFFFFF" mask="url(#mask-2)"></path>
            </g>
        </g>
    </g>
</svg>
