<svg id="图层_1" data-name="图层 1" xmlns="http://www.w3.org/2000/svg" xmlns:xlink="http://www.w3.org/1999/xlink" viewBox="0 0 74 74"><defs><style>.cls-1{fill:none;}.cls-2{clip-path:url(#clip-path);}.cls-3{fill:#11366f;}</style><clipPath id="clip-path"><rect class="cls-1" y="9.29" width="74" height="55.42"/></clipPath></defs><title>平台logo</title><g class="cls-2"><path class="cls-3" d="M20.89,60.75H16.76a12.55,12.55,0,1,1,0-25.1H19a1.78,1.78,0,0,0,1.49-.7c.71-.79.44-1.5.44-2.37A19,19,0,0,1,39.76,13.63a18.62,18.62,0,0,1,12.71,4.92,5.9,5.9,0,0,0,.71.7,2.17,2.17,0,0,0,1.84,1,2.14,2.14,0,0,0,2.11-2.11,2.64,2.64,0,0,0-.88-1.84,4.88,4.88,0,0,0-.7-.62,22.73,22.73,0,0,0-15.8-6.31A23.13,23.13,0,0,0,16.67,31.26a16.68,16.68,0,0,0,0,33.35h4a2.14,2.14,0,0,0,2.11-2.11,1.81,1.81,0,0,0-1.94-1.75Zm39.18.18a3.69,3.69,0,1,0,1.08-2.6,3.69,3.69,0,0,0-1.08,2.6Zm0,0"/><path class="cls-3" d="M36,32.71a3.56,3.56,0,0,0,3.16-1.82h9l8.78,8.77,0,0h5.37a3.57,3.57,0,0,0,3,1.62,3.68,3.68,0,1,0-3.16-5.54H58.65l-7.19-7.08L49.75,27H39a3.56,3.56,0,0,0-3-1.61,3.68,3.68,0,0,0,0,7.36ZM70.33,46.22a3.62,3.62,0,0,0-3.41,2.24H53.4L42.82,59H36.61a3.5,3.5,0,0,0-1.85-1.54,3.69,3.69,0,1,0-2.7,6.87A3.73,3.73,0,0,0,36.48,63h8L55,52.37H67.28v0h.35a3.49,3.49,0,0,0,2.7,1.23A3.62,3.62,0,0,0,74,49.9a3.69,3.69,0,0,0-3.68-3.68Zm-36.8,1a3.58,3.58,0,0,0,3.13-1.78h6a3.56,3.56,0,0,0,3.12,1.78,3.68,3.68,0,1,0-3.06-5.69H36.59a3.67,3.67,0,1,0-3.06,5.69Zm0,0"/></g></svg>