<svg width="12px" height="12px" viewBox="0 0 12 12" version="1.1" xmlns="http://www.w3.org/2000/svg" xmlns:xlink="http://www.w3.org/1999/xlink">
    <!-- Generator: Sketch 50.2 (55047) - http://www.bohemiancoding.com/sketch -->
    <!-- <title>监测中心icon</title>
    <desc>Created with Sketch.</desc>
    <defs></defs>
    <g id="Page-1" stroke="none" stroke-width="1" fill="none" fill-rule="evenodd">
        <g id="首页9.28" transform="translate(-25.000000, -94.000000)">
            <g id="监测中心icon" transform="translate(24.000000, 93.000000)">
                <rect id="Rectangle-45-Copy-25" x="0" y="0" width="14" height="14"></rect>
                <rect id="Rectangle-45-Copy-25" x="0" y="0" width="14" height="14"></rect>
                <g id="search" opacity="0.65" transform="translate(1.000000, 1.000000)" fill="#FFFFFF" fill-rule="nonzero">
                </g>
            </g>
        </g>
    </g> -->

        <defs>
        <clipPath id="clip-path"><rect fill="none" class="cls-1" x="0" y="0" width="14" height="14"/></clipPath>
    </defs>
         <g id="首页9.28" transform="translate(-25.000000, -94.000000)">
         <g id="监测中心icon" transform="translate(24.000000, 93.000000)">
         <g id="lock" transform="translate(1.000000, 1.000000)" fill="#FFFFFF" fill-rule="nonzero">
                    <path d="M11.859375,11.1763393 L9.10446429,8.42276786 C9.84241071,7.53214286 10.2857143,6.38973214 10.2857143,5.14285714 C10.2857143,2.30223214 7.98348214,0 5.14285714,0 C2.30223214,0 0,2.30223214 0,5.14285714 C0,7.98348214 2.30223214,10.2857143 5.14285714,10.2857143 C6.38973214,10.2857143 7.53214286,9.84241071 8.42276786,9.10446429 L11.1776786,11.859375 C11.2714286,11.953125 11.3946429,12 11.5191964,12 C11.64375,12 11.765625,11.953125 11.8607143,11.859375 C12.046875,11.6705357 12.046875,11.3651786 11.859375,11.1763393 Z M6.76875,8.99330357 C6.25446429,9.21160714 5.70803571,9.32142857 5.14285714,9.32142857 C4.57767857,9.32142857 4.03125,9.21160714 3.51696429,8.99330357 C3.02008929,8.78303571 2.57276786,8.48169643 2.18839286,8.09732143 C1.80401786,7.71294643 1.50267857,7.265625 1.29241071,6.76875 C1.07410714,6.25446429 0.964285714,5.70803571 0.964285714,5.14285714 C0.964285714,4.57767857 1.07410714,4.03125 1.29241071,3.51696429 C1.50267857,3.02008929 1.80401786,2.57276786 2.18839286,2.18839286 C2.57276786,1.80401786 3.02008929,1.50267857 3.51696429,1.29241071 C4.03125,1.07410714 4.57767857,0.964285714 5.14285714,0.964285714 C5.70803571,0.964285714 6.25446429,1.07410714 6.76875,1.29241071 C7.265625,1.50267857 7.71294643,1.80401786 8.09732143,2.18839286 C8.48169643,2.57276786 8.78303571,3.02008929 8.99330357,3.51696429 C9.21160714,4.03125 9.32142857,4.57767857 9.32142857,5.14285714 C9.32142857,5.70803571 9.21160714,6.25446429 8.99330357,6.76875 C8.78303571,7.265625 8.48169643,7.71294643 8.09732143,8.09732143 C7.71294643,8.48169643 7.26696429,8.78303571 6.76875,8.99330357 Z" id="Shape"></path>
                    <path d="M4.75297868,4.42427293 L4.18271493,5.73550072 C4.11467204,5.89195416 3.9603122,5.99314801 3.78970296,5.99314801 L2.28571429,5.99314801 C2.04902082,5.99314801 1.85714286,5.80127005 1.85714286,5.56457658 C1.85714286,5.32788312 2.04902082,5.13600515 2.28571429,5.13600515 L3.50874392,5.13600515 L4.3256572,3.25764729 C4.46951153,2.9268779 4.93270252,2.91091744 5.09898367,3.2310003 L6.36807083,5.67392931 L6.5616037,5.34650427 C6.63871676,5.21604196 6.77899721,5.13600515 6.93054535,5.13600515 L8,5.13600515 C8.23669346,5.13600515 8.42857143,5.32788312 8.42857143,5.56457658 C8.42857143,5.80127005 8.23669346,5.99314801 8,5.99314801 L7.17506615,5.99314801 L6.71284791,6.77514347 C6.54164012,7.06479823 6.11870416,7.05322584 5.96359177,6.75464229 L4.75297868,4.42427293 Z" id="Path-2"></path>
        </g>
        </g>
        </g>
</svg>