<svg width="32px" height="32px" viewBox="0 0 32 32" version="1.1" xmlns="http://www.w3.org/2000/svg" xmlns:xlink="http://www.w3.org/1999/xlink">
    <defs>
        <clipPath id="clip-path"><rect fill="none" class="cls-1" x="0" y="0" width="32" height="32"/></clipPath>
    </defs>
         <g id="lock" transform="translate(5.406250, 1.968750)" fill="#9B9B9B" fill-rule="nonzero">
                    <path d="M20.346875,6.846875 C19.80625,5.5125 19.040625,4.31875 18.075,3.303125 C17.109375,2.278125 15.978125,1.46875 14.7125,0.9 C13.403125,0.315625 12.01875,0.01875 10.59375,0.01875 C9.16875,0.01875 7.78125,0.315625 6.471875,0.903125 C5.20625,1.46875 4.078125,2.278125 3.109375,3.303125 C2.134375,4.33125 1.36875,5.525 0.8375,6.846875 C0.284375,8.215625 0.003125,9.671875 0.003125,11.178125 L0.003125,25.871875 C0.003125,27.071875 0.93125,28.046875 2.075,28.046875 L19.103125,28.046875 C20.246875,28.046875 21.175,27.071875 21.16875,25.871875 L21.16875,12.903125 L21.175,12.30625 L21.175,11.178125 C21.18125,9.678125 20.9,8.221875 20.346875,6.846875 Z M7.303125,2.86875 L7.309375,2.86875 L7.35,2.853125 C8.371875,2.3875 9.4625,2.153125 10.590625,2.153125 C11.7125,2.153125 12.80625,2.390625 13.834375,2.846875 C14.83125,3.296875 15.7375,3.94375 16.521875,4.765625 C17.3125,5.6 17.928125,6.565625 18.3625,7.640625 C18.815625,8.759375 19.04375,9.946875 19.04375,11.178125 L19.04375,12.103125 L2.1375,12.103125 L2.1375,11.175 C2.1375,9.95625 2.365625,8.76875 2.81875,7.640625 C3.25625,6.55625 3.878125,5.590625 4.659375,4.76875 C5.4375,3.95 6.321875,3.309375 7.303125,2.86875 Z M19.053125,14.23125 L19.053125,25.86875 C19.053125,25.8875 19.05,25.903125 19.046875,25.9125 L2.14375,25.9125 C2.140625,25.903125 2.1375,25.8875 2.1375,25.86875 L2.1375,14.23125 L19.053125,14.23125 Z M9.60625,19.03125 L9.60625,21.828125 C9.60625,22.375 10.05,22.81875 10.596875,22.81875 C11.14375,22.81875 11.5875,22.375 11.5875,21.828125 L11.5875,19.025 C12.1125,18.6875 12.428125,18.11875 12.428125,17.4875 C12.428125,16.475 11.60625,15.653125 10.59375,15.653125 C9.58125,15.653125 8.759375,16.475 8.759375,17.4875 C8.7625,18.109375 9.084375,18.696875 9.60625,19.03125 Z" id="Shape"></path>
        </g>
</svg>