<?xml version="1.0" encoding="UTF-8"?>
<svg width="13px" height="13px" viewBox="0 0 13 13" version="1.1" xmlns="http://www.w3.org/2000/svg" xmlns:xlink="http://www.w3.org/1999/xlink">
    <!-- Generator: Sketch 50.2 (55047) - http://www.bohemiancoding.com/sketch -->
    <!-- <title>系统配置</title>
    <desc>Created with Sketch.</desc>
    <defs></defs>
    <g id="Page-1" stroke="none" stroke-width="1" fill="none" fill-rule="evenodd">
        <g id="首页9.28" transform="translate(-25.000000, -200.000000)">
            <g id="系统配置" transform="translate(24.000000, 199.000000)">
                <rect id="Rectangle-43-Copy-8" x="0" y="0" width="14" height="14"></rect>
                <g id="setting" transform="translate(1.000000, 1.000000)" fill="#FFFFFF" fill-rule="nonzero">
                </g>
            </g>
        </g>
    </g> -->

     <defs>
        <clipPath id="clip-path"><rect fill="none" class="cls-1" x="0" y="0" width="14" height="14"/></clipPath>
    </defs>
        <g id="首页9.28" transform="translate(-25.000000, -200.000000)">
            <g id="系统配置" transform="translate(24.000000, 199.000000)">
         <g id="lock" transform="translate(1.000000, 1.000000)" fill="#FFFFFF" fill-rule="nonzero">
                    <path d="M12.5448153,5.32649148 L12.4921875,4.99410511 L11.4770241,4.65479403 C11.3883878,4.38057528 11.2775923,4.11189631 11.1460227,3.85568182 L11.6252131,2.89868608 L11.4285511,2.62446733 C11.0296875,2.08018466 10.553267,1.6037642 10.0117543,1.21044034 L9.73892045,1.01377841 L8.78192472,1.49296875 C8.52432528,1.36139915 8.25703125,1.25060369 7.9828125,1.16196733 L7.64488636,0.149573864 L7.31526989,0.0983309659 C6.94825994,0.0401633523 6.63110795,0.0124644886 6.31534091,0.0124644886 C6.00788352,0.0124644886 5.68934659,0.0401633523 5.31402699,0.0997159091 L4.98164062,0.15234375 L4.64371449,1.16889205 C4.36395597,1.2602983 4.09527699,1.37109375 3.84460227,1.49850852 L2.88899148,1.01793324 L2.61615767,1.21459517 C2.07325994,1.60791903 1.59683949,2.08295455 1.20074574,2.62862216 L1.00408381,2.90284091 L1.48327415,3.85983665 C1.35308949,4.11605114 1.24229403,4.38334517 1.15365767,4.65756392 L0.138494318,4.99410511 L0.0858664773,5.32649148 C0.0276988636,5.69350142 0,6.02034801 0,6.32919034 C0,6.63941761 0.0276988636,6.9662642 0.0858664773,7.33050426 L0.138494318,7.66289063 L1.15365767,8.0022017 C1.24229403,8.27642045 1.35308949,8.54509943 1.48465909,8.80131392 L1.00823864,9.75553977 L1.20490057,10.0269886 C1.40987216,10.3122869 1.62176847,10.5629616 1.85166903,10.7942472 C2.06633523,11.0102983 2.31700994,11.2221946 2.61754261,11.4424006 L2.89037642,11.6390625 L3.84598722,11.1598722 C4.10358665,11.2914418 4.37088068,11.4036222 4.64509943,11.4908736 L4.98302557,12.5074219 L5.31541193,12.5600497 C5.67965199,12.6182173 6.00649858,12.6459162 6.31534091,12.6459162 C6.62418324,12.6459162 6.95102983,12.6182173 7.31665483,12.5600497 L7.64904119,12.5074219 L7.98696733,11.4908736 C8.25841619,11.4022372 8.52571023,11.2914418 8.7846946,11.1612571 L9.74169034,11.6404474 L10.0145241,11.4437855 C10.3122869,11.2291193 10.5629616,11.017223 10.7803977,10.7956321 C11.0061435,10.5698864 11.2166548,10.3178267 11.4271662,10.0283736 L11.6238281,9.75415483 L11.1446378,8.79715909 C11.2762074,8.5409446 11.3870028,8.27365057 11.4756392,7.99804688 L12.4908026,7.6587358 L12.5434304,7.32634943 C12.601598,6.96210938 12.6292969,6.63526278 12.6292969,6.32642045 C12.6334517,6.02034801 12.6057528,5.69211648 12.5448153,5.32649148 Z M11.6376776,6.3181108 L11.6376776,6.32503551 C11.6376776,6.51200284 11.6252131,6.70174006 11.601669,6.9053267 L11.1113991,7.06875 L10.6779119,7.21555398 L10.5435724,7.65181108 C10.4674006,7.90387074 10.3662997,8.14900568 10.2430398,8.38167614 L10.0297585,8.7846946 L10.4646307,9.65305398 C10.3372159,9.81370739 10.2111861,9.95635653 10.0796165,10.0879261 L10.0768466,10.090696 C9.94804687,10.2208807 9.80539773,10.3469105 9.64474432,10.4729403 L8.77915483,10.0394531 L8.37752131,10.2485795 C8.14069602,10.3718395 7.89140625,10.4743253 7.63796165,10.554652 L7.20447443,10.6903764 L7.06321023,11.1197088 L6.89978693,11.6099787 C6.69758523,11.6349077 6.50646307,11.6459872 6.31949574,11.6459872 C6.13391335,11.6459872 5.94279119,11.6335227 5.73920455,11.6099787 L5.57578125,11.1197088 L5.4331321,10.6862216 L4.996875,10.5518821 C4.73927557,10.4729403 4.49414062,10.3718395 4.26700994,10.2513494 L3.86260653,10.0408381 L3.4540483,10.2444247 L2.99286222,10.4743253 C2.83220881,10.3469105 2.68955966,10.2208807 2.55799006,10.0893111 C2.42365057,9.95497159 2.29762074,9.81232244 2.17297585,9.65443892 L2.60507812,8.78884943 L2.39456676,8.38721591 C2.26853693,8.1462358 2.16605114,7.89971591 2.0912642,7.65319602 L1.95692472,7.21693892 L1.03455256,6.91086648 C1.00962358,6.70866477 0.998544034,6.51754261 0.998544034,6.33057528 C0.998544034,6.14360795 1.01100852,5.95387074 1.03455256,5.75028409 L1.95415483,5.44421165 L2.08849432,5.00933949 C2.16605114,4.75866477 2.26853693,4.51075994 2.39179687,4.27254972 L2.60230824,3.87091619 L2.40010653,3.46512784 L2.17020597,3.00394176 C2.41257102,2.70202415 2.68817472,2.42642045 2.99009233,2.1840554 L3.85706676,2.61754261 L4.26008523,2.40564631 C4.49275568,2.28377131 4.74066051,2.18128551 4.996875,2.10095881 L5.43036222,1.96523437 L5.57439631,1.53451705 L5.7378196,1.04424716 C5.94694602,1.02070313 6.13668324,1.00823864 6.31672585,1.00823864 C6.50230824,1.00823864 6.6934304,1.02070313 6.8956321,1.04424716 L7.20308949,1.96246449 L7.6365767,2.09680398 C7.88863636,2.17574574 8.13654119,2.27823153 8.37336648,2.40010653 L8.775,2.6106179 L9.64058949,2.17713068 C9.9425071,2.41949574 10.2194957,2.69509943 10.4646307,2.99840199 L10.0325284,3.86399148 L10.2402699,4.26424006 C10.3635298,4.50245028 10.4674006,4.75174006 10.5463423,5.00518466 L10.6820668,5.43867187 L11.1127841,5.58270597 L11.603054,5.74612926 C11.6293679,5.95387074 11.6404474,6.14083807 11.6376776,6.3181108 Z M6.3181108,3.91523437 C4.9871804,3.91523437 3.90415483,4.99825994 3.90415483,6.32919034 C3.90415483,7.66012074 4.9871804,8.74314631 6.3181108,8.74314631 C7.64904119,8.74314631 8.73206676,7.66012074 8.73206676,6.32919034 C8.73206676,4.99825994 7.64904119,3.91523437 6.3181108,3.91523437 Z M7.31942472,7.33050426 C7.05213068,7.5977983 6.69620028,7.74598722 6.3181108,7.74598722 C5.94002131,7.74598722 5.58409091,7.59918324 5.31679688,7.33050426 C5.04950284,7.06321023 4.90131392,6.70727983 4.90131392,6.32919034 C4.90131392,5.95110085 5.0481179,5.59517045 5.31679688,5.32787642 C5.58409091,5.06058239 5.94002131,4.91239347 6.3181108,4.91239347 C6.69620028,4.91239347 7.05213068,5.05919744 7.31942472,5.32787642 C7.58671875,5.5965554 7.73490767,5.95110085 7.73490767,6.32919034 C7.73490767,6.70727983 7.58671875,7.06321023 7.31942472,7.33050426 Z" id="Shape"></path>
        </g>
        </g>
        </g>
</svg>