<?xml version="1.0" encoding="UTF-8"?>
<svg width="32px" height="32px" viewBox="0 0 32 32" version="1.1" xmlns="http://www.w3.org/2000/svg" xmlns:xlink="http://www.w3.org/1999/xlink">
    <!-- Generator: Sketch 50.2 (55047) - http://www.bohemiancoding.com/sketch -->
    <title>Group 156 Copy</title>
    <desc>Created with Sketch.</desc>
    <defs></defs>
    <g id="Styles" stroke="none" stroke-width="1" fill="none" fill-rule="evenodd">
        <g id="UI-icons" transform="translate(-770.000000, -859.000000)">
            <g id="验证码" transform="translate(770.000000, 859.000000)">
                <rect id="Rectangle-45-Copy-21" x="0" y="0" width="32" height="32"></rect>
                <g id="key" transform="translate(2.000000, 2.000000)" fill="#9B9B9B" fill-rule="nonzero">
                    <path d="M25.346875,12.61875 C22.1,9.371875 16.99375,9.125 13.4625,11.871875 L1.925,0.33125 C1.484375,-0.109375 0.771875,-0.109375 0.334375,0.33125 C-0.10625,0.771875 -0.10625,1.484375 0.334375,1.921875 L11.875,13.4625 C9.128125,16.99375 9.375,22.1 12.621875,25.346875 C16.1375,28.8625 21.834375,28.8625 25.35,25.346875 C28.865625,21.83125 28.8625,16.134375 25.346875,12.61875 Z M23.75625,23.75625 C21.11875,26.39375 16.846875,26.39375 14.209375,23.75625 C11.571875,21.11875 11.571875,16.846875 14.209375,14.209375 C16.846875,11.571875 21.11875,11.571875 23.75625,14.209375 C26.39375,16.846875 26.390625,21.11875 23.75625,23.75625 Z M8.99375,7.359375 L11.38125,4.971875 C11.821875,4.53125 11.821875,3.81875 11.38125,3.38125 C10.940625,2.940625 10.228125,2.940625 9.790625,3.38125 L7.403125,5.76875 L8.99375,7.359375 Z M8.375,1.96875 C8.815625,1.528125 8.815625,0.815625 8.375,0.378125 C7.9375,-0.0625 7.225,-0.0625 6.784375,0.378125 L4.396875,2.765625 L5.9875,4.35625 L8.375,1.96875 Z" id="Shape"></path>
                </g>
            </g>
        </g>
    </g>
</svg>