<?xml version="1.0" encoding="UTF-8"?>
<svg width="32px" height="32px" viewBox="0 0 32 32" version="1.1" xmlns="http://www.w3.org/2000/svg" xmlns:xlink="http://www.w3.org/1999/xlink">
    <!-- Generator: Sketch 50.2 (55047) - http://www.bohemiancoding.com/sketch -->
    <title>Group 125 Copy</title>
    <desc>Created with Sketch.</desc>
    <defs></defs>
    <g id="Styles" stroke="none" stroke-width="1" fill="none" fill-rule="evenodd">
        <g id="UI-icons" transform="translate(-669.000000, -859.000000)">
            <g id="用户名" transform="translate(669.000000, 859.000000)">
                <rect id="Rectangle-43-Copy-12" x="0" y="0" width="32" height="32"></rect>
                <g id="user" transform="translate(5.562500, 2.031250)" fill="#9B9B9B" fill-rule="nonzero">
                    <path d="M20.04375,22.78125 C19.51875,21.540625 18.765625,20.425 17.809375,19.46875 C16.853125,18.5125 15.7375,17.759375 14.496875,17.234375 C14.075,17.05625 13.640625,16.90625 13.203125,16.784375 C14.440625,16.365625 15.575,15.665625 16.525,14.715625 C18.15,13.090625 19.046875,10.928125 19.046875,8.63125 C19.046875,6.334375 18.153125,4.171875 16.525,2.546875 C14.9,0.921875 12.7375,0.025 10.440625,0.025 C8.14375,0.025 5.98125,0.91875 4.35625,2.546875 C2.73125,4.171875 1.834375,6.334375 1.834375,8.63125 C1.834375,10.928125 2.728125,13.090625 4.35625,14.715625 C5.30625,15.665625 6.440625,16.365625 7.678125,16.784375 C7.240625,16.90625 6.80625,17.053125 6.384375,17.234375 C5.14375,17.759375 4.028125,18.5125 3.071875,19.46875 C2.115625,20.425 1.3625,21.540625 0.8375,22.78125 C0.29375,24.06875 0.01875,25.43125 0.01875,26.840625 C0.01875,27.4625 0.521875,27.965625 1.14375,27.965625 C1.765625,27.965625 2.26875,27.4625 2.26875,26.840625 C2.26875,24.65625 3.11875,22.603125 4.6625,21.059375 C6.20625,19.515625 8.259375,18.665625 10.44375,18.665625 C12.628125,18.665625 14.68125,19.515625 16.225,21.059375 C17.76875,22.603125 18.61875,24.65625 18.61875,26.840625 C18.61875,27.4625 19.121875,27.965625 19.74375,27.965625 C20.365625,27.965625 20.86875,27.4625 20.86875,26.840625 C20.8625,25.43125 20.5875,24.06875 20.04375,22.78125 Z M4.08125,8.63125 C4.08125,5.125 6.934375,2.275 10.4375,2.275 C13.940625,2.275 16.79375,5.125 16.79375,8.63125 C16.79375,12.1375 13.94375,14.9875 10.4375,14.9875 C6.93125,14.9875 4.08125,12.134375 4.08125,8.63125 Z" id="Shape"></path>
                </g>
            </g>
        </g>
    </g>
</svg>